<svg width="24" height="24" viewBox="0 0 24 24" fill="none" xmlns="http://www.w3.org/2000/svg">
  <circle cx="8" cy="6" r="2.3" fill="#1E4C84"/>
  <circle cx="16.5" cy="5" r="2" fill="#1E4C84"/>
  <path d="M5.2 20.5V15.8L6.8 12.7C7.31222 11.7095 8.33324 11.0563 9.45641 11.0381C10.5796 11.0198 11.6209 11.6408 12.168 12.611L13.5 15H16.5C17.3284 15 18 15.6716 18 16.5V20.5H16.5V17H12.7L10.9 13.8L9.7 16.1V20.5H5.2Z" fill="#1E4C84"/>
  <path d="M17.2 10.5C18.4777 10.5 19.5 11.5223 19.5 12.8V14.7H18V12.8C18 12.3582 17.6418 12 17.2 12H14.4L13.8 10.5H17.2Z" fill="#1E4C84"/>
</svg>
