<svg width="24" height="24" viewBox="0 0 24 24" fill="none" xmlns="http://www.w3.org/2000/svg">
  <circle cx="15" cy="5.5" r="2.5" fill="#1E4C84"/>
  <path d="M12.5 21V15.3C12.5 13.4808 13.9808 12 15.8 12H17C18.8192 12 20.3 13.4808 20.3 15.3V21H18.8V15.3C18.8 14.3073 17.9927 13.5 17 13.5H15.8C14.8073 13.5 14 14.3073 14 15.3V21H12.5Z" fill="#1E4C84"/>
  <path d="M10.5 10.5C10.5 8.84315 11.8431 7.5 13.5 7.5H16.5C18.1569 7.5 19.5 8.84315 19.5 10.5V11.4H18V10.5C18 9.94772 17.5523 9.5 17 9.5H13C12.4477 9.5 12 9.94772 12 10.5V11.4H10.5V10.5Z" fill="#1E4C84"/>
</svg>
