<svg width="24" height="24" viewBox="0 0 24 24" fill="none" xmlns="http://www.w3.org/2000/svg">
  <circle cx="9" cy="6.5" r="2.3" fill="#1E4C84"/>
  <path d="M6 21V16C6 14.3431 7.34315 13 9 13H10.5C12.1569 13 13.5 14.3431 13.5 16V21H12V16C12 15.1716 11.3284 14.5 10.5 14.5H9C8.17157 14.5 7.5 15.1716 7.5 16V21H6Z" fill="#1E4C84"/>
  <path d="M3.5 11.7C3.5 10.2088 4.70879 9 6.2 9H11.8C13.2912 9 14.5 10.2088 14.5 11.7V12.5H13V11.7C13 11.3134 12.6866 11 12.3 11H5.7C5.3134 11 5 11.3134 5 11.7V12.5H3.5V11.7Z" fill="#1E4C84"/>
</svg>
