<?xml version="1.0" encoding="UTF-8"?> <svg xmlns="http://www.w3.org/2000/svg" width="159" height="50" viewBox="0 0 159 50" fill="none"><path d="M37.4006 34.6602C37.8952 34.5885 38.0027 34.2659 37.6515 33.9433C36.9841 33.3954 36.2275 32.9662 35.4149 32.6745L31.8306 32.2874C31.6333 33.3639 31.3773 34.4288 31.0635 35.4774C34.7482 35.0186 37.4221 34.6673 37.4221 34.6673" fill="#A0CF6D"></path><path d="M22.7908 31.3124C20.543 33.7301 17.6619 35.4687 14.4752 36.3304C14.0805 36.4537 13.67 36.5189 13.2565 36.5239C12.8144 36.5594 12.3738 36.439 12.0112 36.1837C11.6485 35.9284 11.3866 35.5542 11.2708 35.1261C11.0916 34.445 11.2278 33.4414 12.9053 32.4952C13.9306 31.9141 14.9128 31.26 15.8444 30.5382L12.2601 30.1582C11.7655 30.1152 7.95896 31.6493 7.52167 31.9074L4.56105 35.1691C4.47784 35.234 4.41317 35.3197 4.37353 35.4176C4.33389 35.5154 4.32067 35.622 4.33519 35.7265C4.34972 35.8311 4.39147 35.93 4.45628 36.0133C4.52108 36.0967 4.60666 36.1615 4.70442 36.2014C6.5708 37.0799 8.60589 37.5422 10.6687 37.5562C12.9626 37.5562 18.9986 36.9182 24.7549 36.2372C25.2067 34.7319 25.5375 33.1929 25.7442 31.635L22.7908 31.3124Z" fill="#A0CF6D"></path><path d="M24.0669 38.438C15.1133 39.0688 5.97337 39.8144 5.97337 39.8144C5.59155 39.8104 5.21982 39.9369 4.91959 40.1728C4.83356 40.3305 5.01995 40.7821 5.51458 40.8251C5.51458 40.8251 13.9592 41.542 22.6547 42.1585C22.6529 42.1466 22.6529 42.1345 22.6547 42.1226C23.2066 40.7965 23.6654 39.5778 24.0525 38.438" fill="#A0CF6D"></path><path d="M27.6797 42.5096C32.8769 42.8609 37.5723 43.1261 39.8663 43.1261C42.3179 43.1261 46.5187 42.9111 46.5187 42.9111C46.999 42.7964 47.1639 41.549 46.9417 41.1117L45.5868 38.7103C45.261 38.2536 44.7697 37.9424 44.2176 37.8429C42.7892 37.6824 41.3537 37.5939 39.9165 37.5776C38.0956 37.5776 34.4182 37.7712 30.1385 38.0436C29.4587 39.525 28.6854 40.9616 27.8231 42.3447L27.7155 42.524" fill="#A0CF6D"></path><path d="M2.38188 49.1622C4.30745 49.4549 6.25684 49.5606 8.20277 49.4776C15.1993 49.4776 45.759 46.3736 45.759 46.3736C46.2536 46.3736 46.6335 46.18 46.6049 46.0295C46.198 45.5189 45.6531 45.1357 45.0349 44.9255C45.0349 44.9255 36.1531 44.3879 26.8698 43.9004L26.669 44.2374C25.8518 45.6711 24.9844 46.3879 24.0238 46.3879C23.7279 46.39 23.4362 46.3175 23.1756 46.1772C22.915 46.0369 22.694 45.8332 22.5328 45.585C22.1951 45.0051 22.0852 44.3203 22.2245 43.6639C16.1312 43.3628 10.4824 43.1262 7.77983 43.1262C5.67755 43.223 3.58428 43.4625 1.51448 43.8431C1.25379 43.9031 1.01392 44.0318 0.819789 44.2159C0.625656 44.3999 0.484341 44.6326 0.410522 44.8897L0.00191273 46.9686C-0.0697731 47.456 1.89442 49.1192 2.38188 49.1622Z" fill="#A0CF6D"></path><path d="M26.6691 10.2438C26.8636 10.2928 27.0635 10.3169 27.2641 10.3155C27.3739 10.3227 27.484 10.3227 27.5938 10.3155C28.3669 10.1447 29.0777 9.76386 29.6482 9.21492C30.2186 8.66598 30.6265 7.97026 30.8269 7.20437C31.5079 5.11831 30.7337 3.0896 29.0992 2.68099C28.9047 2.63205 28.7048 2.60796 28.5043 2.60931H28.1745C27.3997 2.78128 26.6876 3.16428 26.117 3.7159C25.5464 4.26753 25.1395 4.96627 24.9415 5.73481C24.2605 7.82803 25.0347 9.84957 26.6691 10.2582" fill="#404A8F"></path><path d="M24.0238 44.9255C24.3392 44.9255 24.8267 44.5026 25.3859 43.4918C28.6476 37.7569 30.8053 36.0365 31.429 20.9609C31.4714 20.1231 31.6406 19.2964 31.9308 18.5093C32.2383 17.6971 32.6375 16.9226 33.1208 16.201C37.4219 10.8676 41.5367 9.355 47.7877 1.34769C48.3755 0.580655 48.2178 0 47.673 0C47.3527 0.0562408 47.0466 0.175099 46.7723 0.34977C46.498 0.524441 46.2608 0.751496 46.0744 1.01794C42.4275 5.33249 37.8187 8.73074 32.619 10.9393C31.7751 11.2336 30.9131 11.4731 30.0383 11.6561C29.7515 11.7206 29.472 11.7708 29.1924 11.821C27.9812 12.0206 26.7567 12.1284 25.5292 12.1436C22.1528 12.1436 19.3929 11.0826 13.7871 8.20086C13.3749 7.96019 12.9148 7.81333 12.4394 7.77074C11.7225 7.77074 11.8086 8.4876 13.4717 9.73494C16.4968 11.9715 19.6725 13.3192 21.9306 17.0039C22.3912 17.8053 22.7317 18.67 22.9414 19.5702C23.7729 23.219 21.3284 29.4342 13.6222 33.7999C12.3677 34.5167 12.5039 35.0185 13.2494 35.0185C13.5169 35.0111 13.7821 34.9677 14.038 34.8895C17.7298 33.7497 20.0524 32.3733 23.0489 28.8249C23.3787 28.4306 24.8626 26.3302 25.9163 26.3302H26.0167C27.9164 26.5883 28.1673 32.7102 24.0238 42.6817C23.4575 44.0366 23.5579 44.9183 24.0238 44.9183" fill="#404A8F"></path><path d="M59.2217 26.3303L60.6554 21.0398C61.107 19.3337 61.2217 18.8893 62.1321 18.8893C63.0425 18.8893 63.1644 19.3409 63.616 21.0398L64.9852 26.3303H59.2217ZM67.2577 20.875C66.2612 17.2046 65.5515 15.4698 62.0963 15.4698C58.641 15.4698 57.9385 17.2046 56.9349 20.875L53.7664 32.6386C53.4223 33.9218 53.6804 34.23 54.9922 34.23H55.5299C56.8417 34.23 57.2718 33.9218 57.6159 32.6386L58.3328 29.7712H65.8598L66.5767 32.6386C66.9207 33.9218 67.3437 34.23 68.6555 34.23H69.2003C70.5122 34.23 70.7703 33.9218 70.4262 32.6386L67.2577 20.875Z" fill="#404A8F"></path><path d="M83.2292 30.8751C82.5694 30.9954 81.8997 31.053 81.2291 31.0471C80.1467 31.0471 79.437 30.5668 79.437 29.1475V23.513H82.6843C83.9675 23.513 84.2829 23.2047 84.2829 21.9215V21.6133C84.2829 20.3301 83.9675 20.0219 82.6843 20.0219H79.437V17.7996C79.437 16.6096 79.1502 16.3229 77.9531 16.3229H77.781C76.5839 16.3229 76.2398 16.6096 76.0677 17.7566L75.7237 20.0075L74.5552 20.2584C73.444 20.4878 73.1215 20.8319 73.1215 21.9645V22.0792C73.1215 23.2191 73.4082 23.513 74.5552 23.513H75.695V29.1188C75.695 33.2694 78.0391 34.5454 81.2004 34.5454C81.8796 34.5753 82.5601 34.5296 83.2292 34.4092C84.4837 34.1511 84.7919 33.6923 84.7919 32.3948V32.0436C84.7919 30.7676 84.4837 30.6529 83.2292 30.8751Z" fill="#404A8F"></path><path d="M88.9856 23.513H90.1255V29.1188C90.1255 33.2694 92.4624 34.5454 95.6309 34.5454C96.2995 34.562 96.9679 34.5043 97.6238 34.3734C98.8783 34.1153 99.1937 33.6565 99.1937 32.359V32.0436C99.1937 30.7676 98.8783 30.6529 97.6238 30.8751C96.9665 30.9956 96.2992 31.0532 95.6309 31.0471C94.5485 31.0471 93.8316 30.5669 93.8316 29.1475V23.513H97.0861C98.3693 23.513 98.6776 23.2047 98.6776 21.9215V21.6133C98.6776 20.3301 98.3693 20.0219 97.0861 20.0219H93.8316V17.7996C93.8316 16.6096 93.5449 16.3229 92.3477 16.3229H92.1757C90.9785 16.3229 90.6416 16.6096 90.4695 17.7566L90.1255 20.0075L88.957 20.2584C87.8458 20.4878 87.5233 20.8319 87.5233 21.9646V22.0792C87.5233 23.2191 87.81 23.513 88.957 23.513" fill="#404A8F"></path><path d="M106.405 25.0471C106.405 23.6133 107.316 22.8965 109.201 22.8965C111.086 22.8965 112.025 23.6133 112.025 25.0471V25.4772H106.405V25.0471ZM115.101 32.359V32.0436C115.101 30.7676 114.85 30.4235 113.595 30.6816C112.459 30.923 111.302 31.055 110.14 31.0758C107.488 31.0758 106.405 30.359 106.405 28.9253V28.4951H113.653C114.964 28.4951 115.33 28.2442 115.502 26.9324C115.544 26.5588 115.563 26.1829 115.559 25.8069C115.559 21.7638 113.481 19.6635 109.316 19.6635C104.355 19.6635 102.67 22.3947 102.67 26.0578V28.3303C102.67 32.739 105.065 34.5598 110.111 34.5598C111.283 34.569 112.452 34.444 113.595 34.187C114.85 33.8788 115.101 33.6207 115.101 32.3447" fill="#404A8F"></path><path d="M121.631 34.23H122.176C123.459 34.23 123.775 33.9217 123.775 32.6386V25.1331C123.775 23.8571 124.112 23.176 125.968 23.176H126.284C127.452 23.2621 127.717 23.09 127.717 21.8068V21.5058C127.717 20.2226 127.409 19.6849 126.284 19.6849H125.968C122.061 19.6849 120.033 21.5058 120.033 24.8607V32.6386C120.033 33.9217 120.348 34.23 121.631 34.23" fill="#404A8F"></path><path d="M136.657 15.1043C136.796 15.0983 136.936 15.1212 137.066 15.1715C137.197 15.2218 137.315 15.2984 137.415 15.3966C137.514 15.4948 137.593 15.6124 137.645 15.7422C137.697 15.872 137.722 16.0111 137.718 16.1509C137.717 16.287 137.688 16.4216 137.634 16.5464C137.579 16.6712 137.5 16.7837 137.401 16.8769C137.302 16.9701 137.185 17.0421 137.057 17.0886C136.929 17.1351 136.793 17.1551 136.657 17.1473C136.523 17.1532 136.389 17.1316 136.264 17.084C136.139 17.0364 136.025 16.9637 135.929 16.8704C135.833 16.7771 135.757 16.6651 135.706 16.5414C135.655 16.4176 135.629 16.2847 135.631 16.1509C135.623 16.0131 135.644 15.8752 135.693 15.746C135.741 15.6168 135.816 15.4992 135.912 15.4006C136.009 15.302 136.125 15.2247 136.253 15.1737C136.381 15.1227 136.519 15.099 136.657 15.1043V15.1043ZM136.657 18.8247C137.016 18.8448 137.376 18.7899 137.713 18.6635C138.05 18.5371 138.357 18.3419 138.614 18.0905C138.872 17.839 139.074 17.5367 139.209 17.2028C139.343 16.8689 139.406 16.5106 139.395 16.1509C139.414 15.7819 139.358 15.4129 139.229 15.0663C139.101 14.7198 138.904 14.4029 138.649 14.135C138.395 13.8671 138.089 13.6538 137.749 13.508C137.41 13.3623 137.044 13.2871 136.674 13.2871C136.305 13.2871 135.939 13.3623 135.6 13.508C135.26 13.6538 134.954 13.8671 134.7 14.135C134.445 14.4029 134.248 14.7198 134.12 15.0663C133.991 15.4129 133.935 15.7819 133.954 16.1509C133.942 16.5077 134.004 16.8633 134.135 17.1952C134.267 17.527 134.466 17.828 134.72 18.0791C134.974 18.3303 135.277 18.5262 135.61 18.6545C135.944 18.7828 136.3 18.8408 136.657 18.8247" fill="#404A8F"></path><path d="M136.033 28.4307H138.972V29.7999C138.972 31.3626 137.718 31.4773 136.434 31.4773C135.151 31.4773 134.004 31.3626 134.004 29.9934C134.004 28.9468 134.664 28.4307 136.033 28.4307V28.4307ZM136.492 34.5742C140.879 34.5742 142.678 33.0114 142.678 29.9934V24.5668C142.678 20.8463 139.969 19.6779 135.775 19.6779C135.003 19.6699 134.232 19.7178 133.467 19.8212C132.241 19.9933 131.925 20.3302 131.925 21.556V21.6707C131.925 22.9467 132.298 23.1761 133.524 23.0041C134.346 22.8913 135.175 22.8338 136.004 22.832C137.775 22.832 138.972 23.0901 138.972 24.5668V25.6493H136.105C132.707 25.6493 130.312 26.7532 130.312 30.0795C130.312 33.0114 132.14 34.5742 136.506 34.5742" fill="#404A8F"></path><path d="M152.169 31.1332C150.862 31.1647 149.557 31.0126 148.291 30.6816C147.037 30.3375 146.721 30.739 146.721 32.015V32.3304C146.721 33.6064 147.065 33.9218 148.291 34.2014C149.468 34.461 150.671 34.5861 151.876 34.5741C156.299 34.5741 158.012 33.1834 158.012 30.273C158.012 27.8859 156.836 26.8321 154.729 25.9718L151.761 24.8105C150.908 24.4664 150.592 24.2944 150.592 23.8428C150.592 23.3912 150.994 23.0757 152.707 23.0757C153.733 23.0601 154.756 23.1733 155.754 23.4127C157.008 23.7281 157.352 23.4127 157.352 22.1367V21.8499C157.352 20.5739 157.037 20.2585 155.782 19.9789C154.796 19.7303 153.781 19.6146 152.764 19.6348C148.542 19.6348 146.944 21.0685 146.944 23.8141C146.944 26.1439 148.083 27.083 149.911 27.85L152.564 28.9611C153.997 29.5561 154.356 29.7569 154.356 30.2658C154.356 30.9182 153.818 31.0902 152.162 31.0902" fill="#404A8F"></path></svg> 