<svg xmlns="http://www.w3.org/2000/svg" viewBox="0 0 2272.38 591.15"><g id="Layer_2" data-name="Layer 2"><g id="Layer_1-2" data-name="Layer 1"><path d="M2272.38,406.36h-24.85v5.93q0,31,0,62c0,10.23,2.58,12.74,12.72,12.62,3.13,0,6.25,0,9.64,0,.1,1,.28,1.91.29,2.87,0,5.64,0,11.28,0,17.4-10.08,0-19.93,1-29.46-.27-10.69-1.48-17-10.16-18.26-22.71-.75-7.44-.82-15-.88-22.44-.12-16.34,0-32.67,0-49V406.8H2201.5V387.38h19.91V352.86h26v34.5h25Z"/><path d="M341.17,591.15c-14.4-24.95-28.29-49-42.19-73.09q-36.57-63.34-73.22-126.65c-1.94-3.33-1.86-5.62,0-8.92Q335,193.6,444,4.56C445.59,1.84,446.92,0,450.74,0Q564.45.22,678.18.11h4.15C568.5,197.31,455.1,393.79,341.17,591.15Z"/><path d="M0,.11H5.72c26.5,0,53,.1,79.49-.1C89.13,0,91.07,1.32,93,4.6q50,87,100.18,174c1,1.66,1.44,4.62.6,6.09-13.88,24.47-28,48.81-42.07,73.16-.31.54-.75,1-1.63,2.2C100,173.36,50.24,87.14,0,.11Z"/><path d="M1216.23,139.35l2.2-12.78h23.72v5.26q0,54.73,0,109.48c0,32.9-20.61,53.69-53.56,54.17-15.69.23-30.54-2.36-43-12.93a33.81,33.81,0,0,1-11.21-18.5l24.68-6.85c3.71,8.54,10.35,13.58,19.28,15.59,7.33,1.64,14.6,1.39,21.53-1.65,12-5.23,18.47-20.5,15.73-36.54-21.67,21.61-51.44,15.76-66.63,1.49a59.42,59.42,0,0,1-18.08-34.27c-3.62-21.32-1.29-41.62,12.31-59.29,16.25-21.13,47.29-24.93,66.65-8.53C1212,135.81,1214.14,137.59,1216.23,139.35Zm.81,46.92c-1.61-7.58-2.45-15.11-4.87-22.09-3.82-11-11.77-17.47-23.85-18.08-12.84-.65-22.59,4.57-27.85,16.24-7.12,15.79-7,32.11-.15,48,4.93,11.34,14.39,16.94,26.66,16.75,12.48-.2,21.27-6.68,25.21-18.44C1214.59,201.45,1215.47,193.77,1217,186.27Z"/><path d="M865.32,79.65V149h71V79.71h26.84V246.19h-26.5v-73.7H865.47V246.1H838.89V79.65Z"/><path d="M2047,507.22h-23.21c-.8-4.36-1.59-8.7-2.48-13.55a17.51,17.51,0,0,0-2,1.57c-20,22.11-57.85,19-74-8.66-15.11-25.85-15.07-53-.49-79,14.81-26.34,51.48-30.68,73.25-9.87.79.76,1.62,1.49,3.06,2.8V340.62H2047Zm-85.85-59.91-1.28.32c1.94,7.83,3,16,6,23.43,4.75,11.63,14.34,17.19,27,16.79,12.4-.39,20.61-7,24.71-18.43a63.34,63.34,0,0,0-.12-44.49c-4.14-11.21-12.32-17.62-24.48-18s-21.16,4.82-26.75,15.72C1962.26,430.38,1961,438.7,1961.18,447.31Z"/><path d="M864.51,494.17V554h-25.7V387.54h23.28c.8,4.39,1.6,8.84,2.51,13.88,8-8.87,17.14-14.59,28.46-16.11,24.48-3.28,45.56,10.81,53.65,36.46a84,84,0,0,1-2,57.71c-13.81,34.69-56.27,38.69-77.88,16.53C866.36,495.57,865.82,495.22,864.51,494.17Zm59.87-46.11c-.11-9.54-1.2-18.55-5.78-26.8-5.53-10-14.16-14.67-25.45-14.38s-19.78,5.74-24.06,16.31a62.54,62.54,0,0,0,.12,48.54c4.23,10.38,12.44,15.75,23.66,16.13s20-4.15,25.58-14.13C923,465.66,924.17,456.82,924.38,448.06Z"/><path d="M1014,236.16,998.37,251l-12.56-12,17.47-16c-9.45-20.18-10.68-40.1-4.94-60.3,12.77-45,63.83-46.52,86.65-27.35.88.74,1.82,1.42,3.81,3l15.08-17.1,12.82,13c-4.71,4.67-9.36,9.59-14.36,14.14-2.74,2.49-3.14,4.49-1.69,8.06,8,19.86,8.17,40.1.22,59.86-12.73,31.64-53.17,43-81.86,23.52C1017.38,238.63,1015.8,237.45,1014,236.16ZM1069.82,154c-9.43-10.27-27.52-10.86-38.12-.72s-14.88,34.54-8.31,48.85Zm-37.37,66.28c9.53,9.9,28.76,9.69,38.73-2.18,11.31-13.48,11.36-29.35,8-46.8Z"/><path d="M1118,340.2c8.48,0,16.63-.19,24.76.19,1.38.06,3.28,2.35,3.86,4q16.47,46.31,32.63,92.71c3.46,9.87,6.93,19.74,10.74,30.58,1-2.08,1.68-3.29,2.14-4.59q20.68-59.1,41.26-118.24c1.22-3.52,2.87-4.93,6.74-4.75,7.47.35,15,.1,23.19.1-1.2,3.51-2.21,6.57-3.3,9.6q-27.6,76.51-55.12,153c-1.3,3.61-3,4.86-6.74,4.63-5.81-.36-11.67.09-17.48-.23-1.51-.08-3.8-1.43-4.27-2.73q-29.21-81-58.09-162A15.13,15.13,0,0,1,1118,340.2Z"/><path d="M1780,486.7v19.73c-19.28,6.74-32.36.89-36.16-13.59-1.21,1.07-2.3,2-3.31,2.94-15.76,15.12-41.15,18.17-60.36,8-20.91-11.12-26.82-45.49-1.06-60.45,9.18-5.34,19.15-7.54,29.61-7.7,10.65-.15,21.31,0,31.88,0,3.85-13.44-2.08-24.34-14.81-27.62-18.47-4.77-30.3,2.11-34.36,20.61l-25.07-4.69c1.53-15.37,8.7-26.84,22.42-33.19,18-8.31,36.65-8.23,54.79-.63,16.53,6.92,22.83,21.23,23.63,38.07.65,13.81.23,27.66.28,41.49,0,1.5,0,3,0,4.5C1767.51,485.84,1768.38,486.75,1780,486.7Zm-38.94-31.56c-10.16,0-20.11-.28-30,.12a41.6,41.6,0,0,0-13,2.74,14.51,14.51,0,0,0-9.67,14.31c.28,6.39,4.25,12.3,11,13.86a48.52,48.52,0,0,0,17.18,1C1731.24,485.12,1744.22,472.56,1741.08,455.14Z"/><path d="M1089.13,486.54v20.17c-17.93,5.44-31.27,2.19-36.3-14-7.9,8.51-17.31,14.42-28.7,16.06-15.73,2.27-30.78.46-42.77-11.33a34.33,34.33,0,0,1,4.69-52.68c9.52-6.57,20.32-9,31.66-9.21,11-.2,21.91,0,32.76,0,2.79-14.78-3.34-25-16.23-27.9-18.4-4.08-29,2.4-33.7,20.92l-24.63-4.71c.9-16.54,10.92-29.76,27-35.35a70.36,70.36,0,0,1,45.15-.4c18.1,5.7,26.78,19.23,28.12,37.35,1,13.59.49,27.3.64,41,0,2.84,0,5.67,0,8.5C1076.87,485.85,1078.21,487.16,1089.13,486.54Zm-38.3-30.88c-12.41,0-24.51-.32-36.56.19-3.56.16-7.4,2.1-10.46,4.19a14.39,14.39,0,0,0,1.19,24.5,28.77,28.77,0,0,0,10.85,3.17C1036.84,489.75,1052.77,475,1050.83,455.66Z"/><path d="M1510.31,246.45c-10.5,0-19.94.16-29.37-.16-1.53-.06-3.25-2-4.43-3.49q-19.23-23.64-38.32-47.4c-.73-.9-1.51-1.76-2.5-2.92-3.47,3.24-7,6.24-10.14,9.64-1,1.15-1.32,3.32-1.34,5-.1,12.81,0,25.62,0,38.88H1398.3V79.67H1424v90.56c7.51-7.13,14-13.23,20.37-19.35,7.83-7.47,15.59-15,23.51-22.39a7.94,7.94,0,0,1,4.74-2.09c10.48-.18,21-.09,32.77-.09l-52.19,49.24Z"/><path d="M1744.1,193.89c.62,16.42,10.19,29.37,23.24,32.39,15.51,3.59,27.63-3.29,37.64-21.75l23,6.77c-5.14,19.71-24,34.64-45.37,37.08-40.83,4.66-64.62-24.57-65.48-58.78-.36-14.43,1.8-28.24,9.41-40.77,11.73-19.29,33.5-28.45,57-24.08,22.55,4.19,37.72,19.21,41.51,42.13,1.43,8.63,1.3,17.51,1.93,27Zm54.67-19.71c-.18-18.41-10.56-29-27.5-28.39-14.55.53-26.44,13.57-25.65,28.39Z"/><path d="M2102.11,454.85c-.18,15.31,9.63,29,22.7,32.3,15.18,3.88,27.86-3.28,38-21.72l23.26,6.8c-3,9.82-8,17.9-15.56,24.09-17.63,14.44-37.82,16.9-58.77,9.89-20.29-6.79-31.15-22.62-35.24-43-3.44-17.23-2-34.17,6-50.09,10.84-21.38,33.54-31.85,59-27.43,22.94,4,38.84,20.84,41.81,44.72.78,6.25.57,12.62,1,18.91.32,4.24-1.05,5.73-5.56,5.69-23.65-.23-47.29-.11-70.94-.11Zm54.37-19.54c.21-17.77-10.09-28.92-26.21-28.79-15.15.12-27.45,13.21-26.84,28.79Z"/><path d="M1348,465.37l23.46,6.93c-7.12,20-20.58,32.13-40.84,36-38.42,7.43-68.45-16.65-70.29-55.91-.63-13.52,1-26.59,7.18-38.84,10.72-21.4,32.23-31.77,58.27-28.11,22.19,3.12,38.63,19.21,42.4,42.45,1.4,8.61,1.23,17.48,1.81,26.84h-82.26c-1.7,13.21,8.33,28,21.21,32C1324.31,491.51,1338.38,484,1348,465.37Zm-6-30c-.59-19-11.58-30-28.11-28.79-14.63,1.11-26.66,14.86-25,28.79Z"/><path d="M1368.32,161.44l-24.42,4.71c-.38-.45-.7-.67-.77-1-4.73-17.23-21.23-24.56-37.47-16.63-5.83,2.84-8.85,7.24-8.45,12.36.49,6.25,4.87,9.09,10.13,10.17,8.62,1.76,17.42,2.66,26.09,4.21a99.33,99.33,0,0,1,14,3.47c12.51,4.17,21,12.19,22.59,25.84s-2.28,25.37-13.63,33.94c-19.22,14.51-56.69,13.51-75-2-7.65-6.47-13.26-17.46-12.94-25.56.73-.21,1.5-.5,2.29-.65,7.18-1.4,14.37-2.77,21.75-4.19a12.36,12.36,0,0,1,.89,1.8c5.75,19,31.89,26,46.7,12.49,7.88-7.21,6-18.82-4.39-21.75-9.7-2.74-19.93-3.59-29.9-5.39a116.6,116.6,0,0,1-12.15-2.73c-11.59-3.43-19.51-10.41-21.7-22.88-2.26-12.87,1.06-23.87,11.19-32.27,13.7-11.36,29.82-13.06,46.71-10.62,11.68,1.7,22.17,6,29.93,15.39A38.74,38.74,0,0,1,1368.32,161.44Z"/><path d="M1391,471.81l24.68-4.72a14.64,14.64,0,0,1,1,1.92c6.15,19,31.87,25.78,46.82,12.28,7.33-6.62,6-17.71-3.34-21.1-7.09-2.59-14.85-3.34-22.34-4.76-6.21-1.17-12.56-1.7-18.66-3.24-11.87-3-21-9.36-23.72-22.2-3-13.77.62-25.47,11.77-34.34,14.12-11.22,30.48-12.35,47.44-9.65,11.51,1.84,21.68,6.47,29,16a38.57,38.57,0,0,1,7.89,20.33L1467,427.13a23.2,23.2,0,0,1-.81-2.22c-4.59-17.22-25.83-24.35-40.35-13.51-3.53,2.63-5.87,6-5.38,10.6a10.06,10.06,0,0,0,8,9.22c7.59,1.76,15.4,2.52,23,4.17,7.94,1.71,16,3.26,23.57,6.14,24.4,9.31,23.19,43.59,7.16,55.64a62.11,62.11,0,0,1-21.25,10.29c-15.26,3.94-30.76,3.52-45.44-3.15C1401.8,498.1,1393.69,487.41,1391,471.81Z"/><path d="M1829.18,507.13h-25.71V387.63h23.06c.73,3.5,1.49,7.15,2.4,11.48,7.55-8.49,16.52-13.46,27.22-13.87a83.11,83.11,0,0,1,21.76,1.76c17,4,25.19,16.38,28.26,32.61a115.87,115.87,0,0,1,1.92,19.85c.24,20.66.09,41.33.09,62v5.64h-25.64v-5.22c-.06-21.83-.09-43.67-.2-65.5a48.39,48.39,0,0,0-.7-6.44c-2.71-19.17-15-25.19-32.56-22.46-8,1.25-14,6-16.46,13.68a64.62,64.62,0,0,0-3.29,18.51c-.4,20.5-.15,41-.15,61.5Z"/><path d="M1628.76,246.47c-7,0-13.63.12-20.27-.13-1.1,0-2.66-1.58-3.09-2.76a73.87,73.87,0,0,1-2.06-8.85c-10.79,11.39-23.81,15.11-38.6,13.82-23.51-2.06-36.18-14-39.3-37.57a147.34,147.34,0,0,1-1.2-18.42c-.14-21.83,0-43.66,0-65.87h25.63c0,1.94,0,3.87,0,5.79.13,22.17.23,44.33.42,66.5a34.08,34.08,0,0,0,.81,6.42c3.74,18.33,19.9,26.85,37.17,19.54,7.36-3.11,11.5-9.17,13-16.66a107.87,107.87,0,0,0,2-19.8c.26-20.49.1-41,.1-61.82h25.4Z"/><path d="M1883.35,246.24h-25.66V126.6h23.1c.79,3.66,1.57,7.31,2.47,11.49,13.44-14.68,29.81-16.29,47.29-12.56,17.76,3.79,28.69,17,30.63,37.86,1.23,13.23,1.1,26.61,1.29,39.92.19,14.15,0,28.29,0,42.8h-25.63c0-2.27,0-4.38,0-6.49q-.2-33.24-.42-66.49a30.65,30.65,0,0,0-.81-5.93c-3.79-18-19.8-26.36-36.93-19.26a20.24,20.24,0,0,0-12.31,13.6,71.06,71.06,0,0,0-2.93,17.61c-.35,20.49-.13,41-.13,61.5Z"/><path d="M1578.21,486.48v20.64c-10.44.93-20.78,2.69-31.07-.6-10.74-3.44-16.62-12.56-16.87-27.27-.36-21-.3-42-.41-63,0-2.82,0-5.65,0-9.16h-20.2V387.25h20.18v-34.4h25.93v34.23h24.43v19.57h-24.11c-.11,2.43-.26,4.2-.26,6q0,30.25,0,60.51c0,11.92,2.68,14.42,14.56,13.74C1572.84,486.73,1575.3,486.62,1578.21,486.48Z"/><path d="M1635.18,507.22h-25.24V340.64h25.24Z"/><path d="M1689.4,246.26h-25.1V79.63h25.1Z"/><path d="M1025.28,377.5c-12.71-.06-22.81-10-22.78-22.3,0-12.12,10.51-22.31,22.94-22.33a22.51,22.51,0,0,1,22.86,22.73C1048.2,368.05,1038.2,377.57,1025.28,377.5Zm11.35-22.19a11.08,11.08,0,0,0-10.86-11.22,11.11,11.11,0,1,0,10.86,11.22Z"/></g></g></svg>