<?xml version="1.0" encoding="utf-8"?>
<!-- Generator: Adobe Illustrator 24.1.2, SVG Export Plug-In . SVG Version: 6.00 Build 0)  -->
<svg version="1.1" id="Layer_1" xmlns="http://www.w3.org/2000/svg" xmlns:xlink="http://www.w3.org/1999/xlink" x="0px" y="0px"
	 viewBox="0 0 101 85.6" style="enable-background:new 0 0 101 85.6;" xml:space="preserve">
<style type="text/css">
	.st0{fill:#091C28;}
	.st1{fill:#1387BE;}
</style>
<g id="Group_252" transform="translate(-972.122 -852.88)">
	<g id="Group_256" transform="translate(972.122 852.88)">
		<g id="Group_252-2" transform="translate(0 25.364)">
			<path id="Path_175" class="st0" d="M0,0h10.6l9,21.9H20L29,0h10.6v35.4h-8.3V13.6h-0.3l-8.5,21.5h-5.3L8.6,13.5H8.3v21.8H0L0,0z"
				/>
		</g>
		<g id="Group_253" transform="translate(50.217 25.364)">
			<path id="Path_176" class="st0" d="M8.6,0v35.4H0V0H8.6z"/>
		</g>
		<g id="Group_254" transform="translate(67.233 24.396)">
			<path id="Path_177" class="st0" d="M33.8,18.2c0.1,3.4-0.7,6.8-2.2,9.9c-1.4,2.6-3.5,4.7-6.1,6.2c-5.4,2.8-11.8,2.8-17.2,0
				c-2.6-1.4-4.7-3.6-6.1-6.2c-3-6.3-3-13.5,0-19.8c1.4-2.6,3.5-4.7,6.1-6.2c5.4-2.8,11.8-2.8,17.2,0c2.6,1.4,4.7,3.6,6.1,6.2
				C33.1,11.3,33.9,14.7,33.8,18.2z M25,18.2c0.1-2-0.3-4-1-5.8c-1.5-4-5.9-6-9.9-4.5c-2.1,0.8-3.7,2.4-4.5,4.5
				c-1.3,3.8-1.3,7.9,0,11.7c1.5,4,5.9,6,9.8,4.5c2.1-0.8,3.7-2.4,4.5-4.5C24.8,22.1,25.1,20.2,25,18.2z"/>
		</g>
		<g id="Group_255" transform="translate(44.735)">
			<path id="Path_178" class="st1" d="M13.5,0c-2.2,0.3-3.2,2.6-3.7,3.6C9.3,2.6,8.2,0.3,6,0.1c-0.2,0-0.4,0-0.5,0
				c-4.7,0-9,6.2-1,13.4C5.9,14.8,7.5,16,9.2,17c0.4,0.2,1,0.2,1.4-0.1c0.8-0.5,1.6-1,2.3-1.5c1.6-1.1,3-2.5,4.2-3.9
				C22.5,4.7,17.9-0.5,13.5,0z"/>
		</g>
	</g>
	<g id="Group_257" transform="translate(1009.237 924.272)">
		<path id="Path_179" class="st1" d="M0,11.1V0h4.1c0.7,0,1.3,0.1,2,0.4c0.5,0.2,0.9,0.6,1.2,1c0.3,0.5,0.4,1,0.4,1.5
			c0,0.4-0.1,0.8-0.3,1.2C7.1,4.4,6.9,4.6,6.6,4.8C6.3,5,6,5.2,5.7,5.3v0.1c0.4,0,0.8,0.1,1.1,0.4c0.4,0.2,0.7,0.6,0.9,0.9
			C7.9,7.1,8,7.6,8,8.1c0,0.5-0.1,1.1-0.4,1.5c-0.3,0.5-0.7,0.8-1.2,1.1C5.7,11,5,11.1,4.2,11.1H0z M1.7,4.8h2.2
			c0.4,0,0.7-0.1,1-0.2C5.2,4.4,5.5,4.2,5.7,4C5.8,3.7,5.9,3.4,5.9,3c0-0.4-0.2-0.9-0.5-1.2C5,1.5,4.5,1.4,4,1.4H1.7L1.7,4.8z
			 M1.7,9.7h2.4c0.6,0.1,1.2-0.1,1.7-0.5C6.2,8.9,6.3,8.5,6.3,8c0-0.3-0.1-0.7-0.3-1C5.9,6.8,5.6,6.5,5.3,6.4C5,6.2,4.6,6.1,4.1,6.1
			H1.7L1.7,9.7z"/>
		<path id="Path_180" class="st1" d="M10,11.1V0h4c0.7,0,1.5,0.1,2.1,0.5c0.5,0.3,1,0.7,1.3,1.3c0.6,1.2,0.6,2.5,0,3.7
			c-0.3,0.5-0.7,1-1.3,1.3c-0.7,0.3-1.4,0.5-2.1,0.5h-2.7V5.8h2.6c0.5,0,0.9-0.1,1.3-0.3c0.3-0.2,0.6-0.4,0.7-0.8
			C16,4.4,16.1,4,16.1,3.6c0-0.4-0.1-0.8-0.2-1.1c-0.2-0.3-0.4-0.6-0.8-0.8c-0.4-0.2-0.9-0.3-1.3-0.3h-2.1v9.7L10,11.1z"/>
		<path id="Path_181" class="st1" d="M19.5,11.1h-1.8l4-11.1h1.9l4,11.1h-1.8L22.7,2h-0.1L19.5,11.1z M19.8,6.7h5.8v1.4h-5.8V6.7z"
			/>
	</g>
</g>
</svg>
